<svg width="70" height="55" viewBox="0 0 70 55" fill="none" xmlns="http://www.w3.org/2000/svg">
<path d="M0 40.8225H6.49183V0.81879H0V0H18.8322V0.81879H12.3403V40.8225H22.7506C26.1818 40.8225 28.8721 39.7503 30.8216 37.6058C32.7711 35.4614 34.1942 32.5371 35.091 28.8331H35.7343V41.6413H0V40.8225Z" fill="white"/>
<path d="M40.933 53.8192C41.5958 53.8972 42.3561 53.9557 43.2139 53.9947C44.1107 54.0337 45.0854 54.0532 46.1381 54.0532C47.4638 54.0532 48.77 53.9947 50.0566 53.8777C51.3823 53.7218 52.63 53.4293 53.7997 53.0005C55.0084 52.5326 56.1196 51.8892 57.1333 51.0705C58.186 50.2127 59.1218 49.1015 59.9406 47.7368C61.1883 45.6313 62.046 43.4869 62.5139 41.3035C63.0208 39.081 63.2742 36.6637 63.2742 34.0513C63.2742 30.9711 62.9818 28.1833 62.397 25.688C61.8121 23.1536 60.8374 21.0092 59.4727 19.2546C58.1471 17.4611 56.373 16.077 54.1506 15.1022C51.9281 14.1275 49.1794 13.6401 45.9042 13.6401C44.9294 13.6401 44.0327 13.6596 43.2139 13.6986C42.4341 13.7376 41.6738 13.7765 40.933 13.8155V53.8192ZM28.5927 53.8192H35.0845V13.8155H28.5927V12.9967H39.4709C40.0167 12.9967 40.5626 12.9967 41.1084 12.9967C41.6543 12.9578 42.2002 12.9188 42.746 12.8798C43.2919 12.8798 43.8377 12.8798 44.3836 12.8798C44.9294 12.8408 45.4753 12.8213 46.0212 12.8213C47.1909 12.8213 48.2241 12.8408 49.1209 12.8798C50.0566 12.9188 50.9144 12.9967 51.6942 13.1137C52.513 13.1917 53.2733 13.3282 53.9751 13.5231C54.7159 13.6791 55.4957 13.8935 56.3145 14.1664C58.6929 14.9462 60.7399 15.999 62.4554 17.3246C64.21 18.6113 65.6331 20.1124 66.7248 21.828C67.8556 23.5435 68.6743 25.4151 69.1812 27.4425C69.7271 29.47 70 31.595 70 33.8174C70 36.3907 69.6881 38.7106 69.0642 40.7771C68.4404 42.8046 67.5826 44.6176 66.4909 46.2162C65.3992 47.7758 64.1125 49.1404 62.6309 50.3101C61.1883 51.4409 59.6287 52.3571 57.9521 53.0589C57.0163 53.4878 56.1196 53.8192 55.2618 54.0532C54.443 54.2871 53.5852 54.4626 52.6885 54.5796C51.8307 54.6965 50.8754 54.7745 49.8227 54.8135C48.77 54.8525 47.5613 54.872 46.1966 54.872C45.6118 54.872 44.9879 54.8525 44.3251 54.8135C43.6623 54.8135 42.9994 54.794 42.3366 54.755C41.6738 54.716 41.011 54.677 40.3481 54.638C39.7243 54.638 39.1199 54.638 38.5351 54.638H28.5927V53.8192Z" fill="white"/>
</svg>
