<svg width="24" height="27" viewBox="0 0 24 27" fill="none" xmlns="http://www.w3.org/2000/svg">
<path d="M4.66667 1L1 5.88889V23C1 23.6483 1.25754 24.2701 1.71596 24.7285C2.17438 25.1869 2.79614 25.4444 3.44444 25.4444H20.5556C21.2039 25.4444 21.8256 25.1869 22.284 24.7285C22.7425 24.2701 23 23.6483 23 23V5.88889L19.3333 1H4.66667Z" stroke="white" stroke-width="2" stroke-linecap="round" stroke-linejoin="round"/>
<path d="M1 5.88916H23" stroke="white" stroke-width="2" stroke-linecap="round" stroke-linejoin="round"/>
<path d="M16.8889 10.7778C16.8889 12.0744 16.3738 13.318 15.457 14.2348C14.5402 15.1516 13.2966 15.6667 12 15.6667C10.7034 15.6667 9.45991 15.1516 8.54307 14.2348C7.62622 13.318 7.11115 12.0744 7.11115 10.7778" stroke="white" stroke-width="2" stroke-linecap="round" stroke-linejoin="round"/>
</svg>
