<svg width="22" height="27" viewBox="0 0 22 27" fill="none" xmlns="http://www.w3.org/2000/svg">
<path d="M20.6341 10.9286C20.6341 18.9841 10.9378 25.8889 10.9378 25.8889C10.9378 25.8889 1.24146 18.9841 1.24146 10.9286C1.24146 8.18168 2.26303 5.5473 4.08145 3.60496C5.89986 1.66261 8.36616 0.571419 10.9378 0.571419C13.5094 0.571419 15.9757 1.66261 17.7941 3.60496C19.6126 5.5473 20.6341 8.18168 20.6341 10.9286Z" stroke="#333333" stroke-linecap="round" stroke-linejoin="round"/>
<path d="M10.9377 14.381C12.7228 14.381 14.1699 12.8353 14.1699 10.9286C14.1699 9.0219 12.7228 7.47622 10.9377 7.47622C9.15269 7.47622 7.70563 9.0219 7.70563 10.9286C7.70563 12.8353 9.15269 14.381 10.9377 14.381Z" stroke="#333333" stroke-linecap="round" stroke-linejoin="round"/>
</svg>
