<svg width="38" height="38" viewBox="0 0 38 38" fill="none" xmlns="http://www.w3.org/2000/svg">
<path d="M27.8807 1.47559H9.96024C5.01163 1.47559 1 5.48722 1 10.4358V28.3563C1 33.3049 5.01163 37.3165 9.96024 37.3165H27.8807C32.8293 37.3165 36.8409 33.3049 36.8409 28.3563V10.4358C36.8409 5.48722 32.8293 1.47559 27.8807 1.47559Z" stroke="#EEDDAF" stroke-linecap="round" stroke-linejoin="round"/>
<path d="M26.0887 18.2671C26.3098 19.7585 26.0551 21.2817 25.3607 22.62C24.6663 23.9583 23.5675 25.0435 22.2208 25.7214C20.874 26.3993 19.3478 26.6352 17.8592 26.3957C16.3706 26.1561 14.9955 25.4533 13.9294 24.3872C12.8632 23.3211 12.1604 21.9459 11.9209 20.4573C11.6813 18.9688 11.9173 17.4425 12.5952 16.0958C13.273 14.749 14.3583 13.6503 15.6966 12.9559C17.0349 12.2615 18.5581 12.0067 20.0495 12.2279C21.5708 12.4535 22.9792 13.1624 24.0667 14.2499C25.1542 15.3373 25.8631 16.7458 26.0887 18.2671Z" stroke="#EEDDAF" stroke-linecap="round" stroke-linejoin="round"/>
<path d="M28.7767 9.53979H28.7937" stroke="#EEDDAF" stroke-linecap="round" stroke-linejoin="round"/>
</svg>
