<svg width="41" height="30" viewBox="0 0 41 30" fill="none" xmlns="http://www.w3.org/2000/svg">
<path d="M39.6017 5.39632C39.3889 4.54584 38.9553 3.76659 38.3449 3.13728C37.7345 2.50798 36.9688 2.0509 36.1252 1.81223C33.0428 1.05957 20.7135 1.05957 20.7135 1.05957C20.7135 1.05957 8.38426 1.05957 5.30194 1.88391C4.45833 2.12259 3.69264 2.57966 3.08221 3.20896C2.47179 3.83827 2.03824 4.61752 1.82537 5.46801C1.26126 8.59612 0.985319 11.7694 1.00102 14.9479C0.980916 18.1504 1.25687 21.3479 1.82537 24.4995C2.06005 25.3236 2.50331 26.0732 3.11231 26.676C3.72132 27.2787 4.47548 27.7141 5.30194 27.9403C8.38426 28.7646 20.7135 28.7646 20.7135 28.7646C20.7135 28.7646 33.0428 28.7646 36.1252 27.9403C36.9688 27.7016 37.7345 27.2445 38.3449 26.6152C38.9553 25.9859 39.3889 25.2067 39.6017 24.3562C40.1615 21.2516 40.4374 18.1025 40.4261 14.9479C40.4462 11.7455 40.1702 8.54799 39.6017 5.39632V5.39632Z" stroke="#EEDDAF" stroke-linecap="round" stroke-linejoin="round"/>
<path d="M16.6814 20.8079L26.9857 14.9479L16.6814 9.08789V20.8079Z" stroke="#EEDDAF" stroke-linecap="round" stroke-linejoin="round"/>
</svg>
