<svg width="27" height="27" viewBox="0 0 27 27" fill="none" xmlns="http://www.w3.org/2000/svg">
<path d="M19.75 1H7.25C3.79822 1 1 3.79822 1 7.25V19.75C1 23.2018 3.79822 26 7.25 26H19.75C23.2018 26 26 23.2018 26 19.75V7.25C26 3.79822 23.2018 1 19.75 1Z" stroke="white" stroke-linecap="round" stroke-linejoin="round"/>
<path d="M18.5 12.7126C18.6543 13.7529 18.4766 14.8154 17.9922 15.7489C17.5078 16.6824 16.7414 17.4394 15.802 17.9122C14.8626 18.3851 13.7981 18.5496 12.7597 18.3825C11.7214 18.2155 10.7622 17.7252 10.0185 16.9816C9.2749 16.2379 8.78467 15.2787 8.61758 14.2404C8.4505 13.2021 8.61508 12.1375 9.08791 11.1981C9.56073 10.2587 10.3177 9.49231 11.2512 9.00793C12.1847 8.52356 13.2472 8.34587 14.2875 8.50013C15.3487 8.65749 16.3311 9.15196 17.0896 9.91052C17.8482 10.6691 18.3426 11.6515 18.5 12.7126Z" stroke="white" stroke-linecap="round" stroke-linejoin="round"/>
<path d="M20.375 6.625H20.3875" stroke="white" stroke-linecap="round" stroke-linejoin="round"/>
</svg>
