<svg width="25" height="29" viewBox="0 0 25 29" fill="none" xmlns="http://www.w3.org/2000/svg">
<path d="M24.9877 7.12343C23.3627 7.12343 21.8601 6.58361 20.658 5.67648C19.2779 4.63579 18.2817 3.10537 17.9311 1.34677C17.842 0.912689 17.7975 0.46191 17.792 0H13.145V12.6942L13.1395 19.6451C13.1395 21.5038 11.9263 23.0788 10.2511 23.6353C9.7614 23.7967 9.23828 23.8746 8.69289 23.8412C7.99168 23.8023 7.34055 23.5908 6.76734 23.2513C5.55413 22.5278 4.73604 21.2145 4.71378 19.7063C4.68039 17.3578 6.57812 15.4378 8.92663 15.4378C9.38853 15.4378 9.83375 15.5157 10.2511 15.6493V12.1822V10.9411C9.81149 10.8744 9.36627 10.841 8.90993 10.841C6.33882 10.841 3.93466 11.9095 2.21502 13.835C0.918332 15.2875 0.139207 17.1463 0.0167734 19.0941C-0.139052 21.6485 0.795899 24.0805 2.61015 25.8725C2.87728 26.1341 3.15553 26.3789 3.45049 26.6071C5.00317 27.8036 6.90647 28.4548 8.90993 28.4548C9.36071 28.4548 9.81149 28.4214 10.2511 28.3546C12.121 28.0763 13.8462 27.2193 15.2097 25.8725C16.8848 24.2197 17.8087 22.0214 17.8198 19.684L17.7975 9.29941C18.5933 9.91715 19.4671 10.4236 20.4076 10.8187C21.8657 11.4364 23.4128 11.7425 24.9989 11.7425V8.37003V7.11786C25.0044 7.12343 24.9877 7.12343 24.9877 7.12343Z" fill="white"/>
</svg>
