<svg width="30" height="27" viewBox="0 0 30 27" fill="none" xmlns="http://www.w3.org/2000/svg">
<path d="M18.18 3L20.925 6H27V24H3V6H9.075L11.82 3H18.18ZM19.5 0H10.5L7.755 3H3C1.35 3 0 4.35 0 6V24C0 25.65 1.35 27 3 27H27C28.65 27 30 25.65 30 24V6C30 4.35 28.65 3 27 3H22.245L19.5 0ZM15 10.5C17.475 10.5 19.5 12.525 19.5 15C19.5 17.475 17.475 19.5 15 19.5C12.525 19.5 10.5 17.475 10.5 15C10.5 12.525 12.525 10.5 15 10.5ZM15 7.5C10.86 7.5 7.5 10.86 7.5 15C7.5 19.14 10.86 22.5 15 22.5C19.14 22.5 22.5 19.14 22.5 15C22.5 10.86 19.14 7.5 15 7.5Z" fill="#555555"/>
</svg>
