<svg width="39" height="33" viewBox="0 0 39 33" fill="none" xmlns="http://www.w3.org/2000/svg">
<path d="M18.5636 1.49757C18.888 0.6323 20.112 0.6323 20.4364 1.49757L24.3083 11.8252C24.4546 12.2156 24.8278 12.4742 25.2446 12.4742H37.4339C38.4368 12.4742 38.8154 13.786 37.9667 14.3204L28.3632 20.3674C27.9617 20.6203 27.7931 21.1204 27.9597 21.5647L31.6836 31.4976C32.0198 32.3943 31.0248 33.2051 30.2144 32.6949L20.0328 26.2838C19.7072 26.0788 19.2928 26.0788 18.9672 26.2838L8.7856 32.6949C7.97523 33.2051 6.98023 32.3943 7.31641 31.4976L11.0403 21.5647C11.2069 21.1204 11.0383 20.6203 10.6368 20.3674L1.03327 14.3204C0.184562 13.786 0.563166 12.4742 1.5661 12.4742H13.7554C14.1722 12.4742 14.5454 12.2156 14.6917 11.8252L18.5636 1.49757Z" fill="#DFDFDF"/>
</svg>
