<svg width="18" height="19" viewBox="0 0 18 19" fill="none" xmlns="http://www.w3.org/2000/svg">
<path d="M5.06449 17.4884H2.6258C2.19461 17.4884 1.78108 17.3172 1.47618 17.0123C1.17129 16.7074 1 16.2938 1 15.8626V10.1724C1 9.74117 1.17129 9.32764 1.47618 9.02274C1.78108 8.71785 2.19461 8.54656 2.6258 8.54656H5.06449M10.7548 6.92076V3.66916C10.7548 3.02238 10.4979 2.40209 10.0405 1.94475C9.58316 1.4874 8.96287 1.23047 8.31609 1.23047L5.06449 8.54656V17.4884H14.234C14.6261 17.4929 15.0066 17.3555 15.3053 17.1015C15.6041 16.8476 15.801 16.4942 15.8598 16.1065L16.9816 8.79043C17.017 8.55741 17.0012 8.3195 16.9355 8.09316C16.8698 7.86683 16.7557 7.65749 16.601 7.47964C16.4464 7.30179 16.2549 7.1597 16.0399 7.06319C15.8249 6.96669 15.5915 6.91809 15.3558 6.92076H10.7548Z" stroke="#3463B4" stroke-width="2" stroke-linecap="round" stroke-linejoin="round"/>
</svg>
