<svg width="30" height="20" viewBox="0 0 30 20" fill="none" xmlns="http://www.w3.org/2000/svg">
<g clip-path="url(#clip0_351_2)">
<path d="M27.0714 17.1429C26.7398 18.7717 25.2972 20 23.5714 20C21.8444 20 20.4031 18.7717 20.0714 17.1429H0.714286C0.320153 17.1429 0 16.8227 0 16.4286C0 16.0344 0.320153 15.7143 0.714286 15.7143H20.0714C20.4031 14.0855 21.8457 12.8571 23.5714 12.8571C25.2985 12.8571 26.7398 14.0855 27.0714 15.7143H29.2857C29.6798 15.7143 30 16.0344 30 16.4286C30 16.8227 29.6798 17.1429 29.2857 17.1429H27.0714ZM23.5714 14.2857C22.3903 14.2857 21.4286 15.2462 21.4286 16.4286C21.4286 17.6097 22.389 18.5714 23.5714 18.5714C24.7526 18.5714 25.7143 17.611 25.7143 16.4286C25.7143 15.2475 24.7538 14.2857 23.5714 14.2857ZM9.92857 4.28572C9.59694 5.91454 8.15434 7.14286 6.42857 7.14286C4.70153 7.14286 3.2602 5.91454 2.92857 4.28572H0.714286C0.320153 4.28572 0 3.96556 0 3.57143C0 3.1773 0.320153 2.85714 0.714286 2.85714H2.92857C3.2602 1.22704 4.70281 0 6.42857 0C8.15561 0 9.59694 1.22832 9.92857 2.85714H29.2857C29.6798 2.85714 30 3.17602 30 3.57143C30 3.96684 29.6798 4.28572 29.2857 4.28572H9.92857ZM6.42857 1.42857C5.24745 1.42857 4.28571 2.38903 4.28571 3.57143C4.28571 4.75255 5.24617 5.71429 6.42857 5.71429C7.60969 5.71429 8.57143 4.75383 8.57143 3.57143C8.57143 2.39031 7.61097 1.42857 6.42857 1.42857Z" fill="black"/>
</g>
<defs>
<clipPath id="clip0_351_2">
<rect width="30" height="20" fill="white"/>
</clipPath>
</defs>
</svg>
