<svg width="16" height="22" viewBox="0 0 16 22" fill="none" xmlns="http://www.w3.org/2000/svg">
<path d="M8 0C3.58719 0 0 3.58719 0 8C0 11.208 1.94278 14.6278 3.84455 17.2902C5.7452 19.9516 7.64698 21.8534 7.64698 21.8534C7.84171 22.0481 8.15829 22.0481 8.35416 21.8534C8.35416 21.8534 10.2559 19.9516 12.1577 17.2891C14.0584 14.6278 16 11.208 16 7.99886C16 3.58719 12.4117 0 8 0ZM8 0.999858C11.8719 0.999858 15.0001 4.12811 15.0001 8C15.0001 10.7912 13.1929 14.1199 11.3446 16.7083C9.67288 19.0497 8.3052 20.4117 8.00114 20.7226C7.69708 20.4117 6.33053 19.0497 4.65879 16.7083C2.81053 14.1199 1.001 10.7912 1.001 8C0.999858 4.12811 4.12811 0.999858 8 0.999858Z" fill="black"/>
<path d="M7.99999 4.49927C6.07316 4.49927 4.50049 6.07308 4.50049 7.99991C4.50049 9.92674 6.07202 11.5005 7.99999 11.5005C9.92796 11.5005 11.5006 9.92674 11.5006 7.99991C11.5006 6.07308 9.92682 4.49927 7.99999 4.49927ZM7.99999 5.49913C9.38703 5.49913 10.5008 6.61286 10.5008 7.99991C10.5008 9.38696 9.38703 10.5007 7.99999 10.5007C6.61294 10.5007 5.50148 9.38696 5.50148 7.99991C5.50148 6.61286 6.61294 5.49913 7.99999 5.49913Z" fill="black"/>
</svg>
