<svg width="20" height="20" viewBox="0 0 20 20" fill="none" xmlns="http://www.w3.org/2000/svg">
<path d="M14.5491 13.3728C17.4079 9.86368 16.8818 4.70106 13.3728 1.84231C9.86368 -1.01644 4.70106 -0.490417 1.84231 3.01866C-1.01644 6.52773 -0.490417 11.6904 3.01866 14.5491C6.03278 17.0039 10.3586 17.0039 13.3728 14.5491L18.5776 19.7539C18.9016 20.0802 19.4276 20.0824 19.7539 19.7583C20.0802 19.4343 20.0824 18.9083 19.7583 18.582C19.7561 18.5798 19.7561 18.5798 19.7539 18.5776L14.5491 13.3728ZM8.2057 14.7267C4.60562 14.7267 1.68694 11.808 1.68694 8.2057C1.68694 4.6034 4.60562 1.68694 8.2057 1.68694C11.8058 1.68694 14.7267 4.60562 14.7267 8.20792C14.7222 11.8058 11.8058 14.7222 8.2057 14.7267Z" fill="#656565"/>
</svg>
