<svg width="12" height="17" viewBox="0 0 12 17" fill="none" xmlns="http://www.w3.org/2000/svg">
<path d="M2.88894 3.61111V2.05556C2.88894 1.643 3.05283 1.24733 3.34455 0.955612C3.63627 0.663888 4.03193 0.5 4.44449 0.5H7.5556C7.96816 0.5 8.36382 0.663888 8.65555 0.955612C8.94727 1.24733 9.11116 1.643 9.11116 2.05556V3.61111M11.4445 3.61111V14.5C11.4445 14.9126 11.2806 15.3082 10.9889 15.5999C10.6972 15.8917 10.3015 16.0556 9.88894 16.0556H2.11116C1.6986 16.0556 1.30294 15.8917 1.01121 15.5999C0.719491 15.3082 0.555603 14.9126 0.555603 14.5V3.61111H11.4445Z" stroke="#8E8E8E" stroke-linecap="round" stroke-linejoin="round"/>
</svg>
