<svg width="21" height="21" viewBox="0 0 21 21" fill="none" xmlns="http://www.w3.org/2000/svg">
<path d="M21 7.37834C21 5.99165 19.876 4.86656 18.4882 4.86656H16.831C17.8553 3.73149 18.5359 2.28272 18.1545 1.20529C17.9905 0.722004 17.4784 -0.0505967 15.87 0.0026096C12.9237 0.0990461 11.5913 3.68272 11.2289 4.86656H9.90978C9.53401 3.68382 8.22048 0.0990461 5.27418 0.0026096C3.6658 -0.0505967 3.14925 0.73198 2.98409 1.20529C2.60278 2.28272 3.28337 3.73149 4.3076 4.86656H2.4487C1.0864 4.90092 -0.00100828 6.01493 0.000100188 7.37834C-0.0065506 8.10882 0.31823 8.80382 0.883547 9.26716V20.5059C0.883547 20.773 1.0997 20.9892 1.36684 20.9892H19.5656C19.8328 20.9892 20.0489 20.773 20.0489 20.5059V9.28601C20.6508 8.83708 21.0033 8.12877 21 7.37834ZM20.0334 7.37834C20.029 7.88712 19.7574 8.35711 19.3184 8.61428C19.0679 8.76835 18.7819 8.85371 18.4882 8.86036H13.0113V5.83203H18.4882C19.3373 5.84311 20.0234 6.52925 20.0334 7.37834ZM15.8988 0.969191C16.657 0.969191 17.1059 1.12881 17.2412 1.52453C17.4928 2.2539 16.7579 3.80908 15.4056 4.86656H12.2464C12.6588 3.65944 13.7883 1.03681 15.8988 0.969191ZM3.89746 1.52453C4.0327 1.12881 4.4916 0.944805 5.23982 0.969191C7.3459 1.03681 8.48097 3.65944 8.8911 4.86656H5.73308C4.37521 3.80908 3.64584 2.2539 3.89746 1.52453ZM2.4487 5.83203H7.92563V8.86036H2.4487C2.15828 8.8526 1.87562 8.76946 1.62733 8.61871C1.20722 8.34714 0.956706 7.87715 0.965574 7.37723C0.970007 6.55031 1.62179 5.87083 2.4487 5.83203ZM1.84902 9.74935L2.02305 9.78371H2.12946C2.23477 9.79923 2.34118 9.80699 2.4487 9.80809H7.92563V20.0226H1.84902V9.74935ZM8.8911 9.34365V5.83203H12.0447V20.0215H8.8911V9.34365ZM19.0823 20.0226H13.0113V9.82694H18.4882C18.5946 9.82583 18.701 9.81807 18.8074 9.80255L18.9183 9.77817C18.9737 9.77151 19.028 9.76154 19.0823 9.74935V20.0226Z" fill="black"/>
</svg>
