<svg width="26" height="17" viewBox="0 0 26 17" fill="none" xmlns="http://www.w3.org/2000/svg">
<path d="M19.5001 3.54541C19.1751 3.54541 18.9092 3.80836 18.9092 4.13632V5.31814C18.9092 5.64314 19.1751 5.90905 19.5001 5.90905C19.8251 5.90905 20.091 5.64314 20.091 5.31814V4.13632C20.091 3.81132 19.828 3.54541 19.5001 3.54541Z" fill="black"/>
<path d="M19.5001 7.09082C19.1751 7.09082 18.9092 7.35377 18.9092 7.68173V8.86355C18.9092 9.18855 19.1751 9.45445 19.5001 9.45445C19.8251 9.45445 20.091 9.18855 20.091 8.86355V7.68173C20.091 7.35673 19.828 7.09082 19.5001 7.09082Z" fill="black"/>
<path d="M19.5001 10.6365C19.1751 10.6365 18.9092 10.8994 18.9092 11.2274V12.4092C18.9092 12.7342 19.1751 13.0001 19.5001 13.0001C19.8251 13.0001 20.091 12.7342 20.091 12.4092V11.2274C20.091 10.9024 19.828 10.6365 19.5001 10.6365Z" fill="black"/>
<path d="M25.5273 5.95636C25.802 5.90023 26 5.65796 26 5.37727V0.590909C26 0.265909 25.737 0 25.4091 0H0.590909C0.265909 0 0 0.262955 0 0.590909V5.37727C0 5.65796 0.197955 5.90023 0.472727 5.95636C1.75205 6.21932 2.57636 7.46614 2.31636 8.74545C2.12727 9.67318 1.40045 10.397 0.472727 10.5891C0.197955 10.6452 0 10.8875 0 11.1682V15.9545C0 16.2795 0.262955 16.5455 0.590909 16.5455H25.4091C25.7341 16.5455 26 16.2825 26 15.9545V11.1682C26 10.8875 25.802 10.6452 25.5273 10.5891C24.248 10.3261 23.4236 9.07932 23.6836 7.8C23.8727 6.87227 24.5995 6.14545 25.5273 5.95636ZM24.8182 11.6143V15.3636H20.0909V14.7727C20.0909 14.4477 19.825 14.1818 19.5 14.1818C19.175 14.1818 18.9091 14.4477 18.9091 14.7727V15.3636H1.18182V11.6143C3.02841 10.9614 3.99455 8.93455 3.34159 7.08795C2.98409 6.0775 2.18932 5.28273 1.18182 4.92818V1.18182H18.9091V1.77273C18.9091 2.09773 19.175 2.36364 19.5 2.36364C19.825 2.36364 20.0909 2.09773 20.0909 1.77273V1.18182H24.8182V4.93114C22.9716 5.58409 22.0055 7.61091 22.6584 9.4575C23.013 10.465 23.8077 11.2598 24.8182 11.6143Z" fill="black"/>
<path d="M8.27273 7.68193C9.25068 7.68193 10.0455 6.88716 10.0455 5.9092C10.0455 4.93125 9.25068 4.13647 8.27273 4.13647C7.29477 4.13647 6.5 4.93125 6.5 5.9092C6.5 6.88716 7.29477 7.68193 8.27273 7.68193ZM8.27273 5.31829C8.59773 5.31829 8.86364 5.5842 8.86364 5.9092C8.86364 6.2342 8.59773 6.50011 8.27273 6.50011C7.94773 6.50011 7.68182 6.2342 7.68182 5.9092C7.68182 5.5842 7.94773 5.31829 8.27273 5.31829Z" fill="black"/>
<path d="M13.7653 4.31074L6.67442 11.4017C6.44101 11.6292 6.4351 12.0044 6.6626 12.2378C6.8901 12.4712 7.26533 12.4771 7.49874 12.2496C7.50169 12.2467 7.50465 12.2437 7.51056 12.2378L14.6015 5.14688C14.829 4.91347 14.826 4.53824 14.5897 4.31074C14.3592 4.0862 13.9928 4.0862 13.7653 4.31074Z" fill="black"/>
<path d="M12.9998 8.86353C12.0218 8.86353 11.2271 9.6583 11.2271 10.6363C11.2271 11.6142 12.0218 12.409 12.9998 12.409C13.9777 12.409 14.7725 11.6142 14.7725 10.6363C14.7725 9.6583 13.9777 8.86353 12.9998 8.86353ZM12.9998 11.2272C12.6748 11.2272 12.4089 10.9613 12.4089 10.6363C12.4089 10.3113 12.6748 10.0453 12.9998 10.0453C13.3248 10.0453 13.5907 10.3113 13.5907 10.6363C13.5907 10.9613 13.3248 11.2272 12.9998 11.2272Z" fill="black"/>
</svg>
