<svg width="50" height="50" viewBox="0 0 50 50" fill="none" xmlns="http://www.w3.org/2000/svg">
<path d="M43.6036 0H6.38921C4.64279 0 3.04003 0.609793 1.88295 1.59147C0.718639 2.58534 0 3.939 0 5.42683V13.9756C0 15.4634 0.71875 16.8171 1.87583 17.8049C3.04014 18.7927 4.64279 19.4024 6.38932 19.4024H7.66856L4.99503 50H44.9906L42.3242 19.4024H43.6036C45.3572 19.4024 46.9527 18.7926 48.117 17.8109C49.2813 16.8171 50 15.4634 50 13.9757V5.42683C50 3.939 49.2813 2.58534 48.117 1.59752C46.9528 0.6097 45.3572 0 43.6036 0ZM10.2558 8.60977H39.737C40.9515 21.9695 42.2165 35.25 43.388 48.6829H6.60481C7.77625 35.25 9.04113 21.9695 10.2558 8.60977ZM6.38921 2.63419H43.6036C44.5092 2.63419 45.3356 2.94513 45.9249 3.45128C46.5214 3.95733 46.8952 4.65858 46.8952 5.42692V13.9757C46.8952 14.744 46.5214 15.4452 45.9321 15.9452C45.3356 16.4574 44.5091 16.7683 43.6034 16.7683H43.5891L42.6116 5.97559H7.38091L6.40347 16.7683C5.48348 16.7683 4.65704 16.4512 4.0677 15.9512C3.47123 15.4452 3.0975 14.7439 3.0975 13.9756V5.42683C3.0975 4.65849 3.47123 3.95733 4.06057 3.45733C4.65704 2.94513 5.48359 2.63419 6.38921 2.63419Z" fill="#106909"/>
<path d="M20.0881 22.1523L18.7801 45.884L20.3253 45.9389L21.6333 22.2072L20.0881 22.1523Z" fill="#106909"/>
<path d="M25.1911 14.6038L24.2855 45.8964L25.8307 45.9269L26.7363 14.6342L25.1911 14.6038Z" fill="#106909"/>
<path d="M34.95 42.7926C34.605 43.2682 34.4181 43.817 34.4181 44.3779C34.4181 46.0365 35.9993 47.3779 37.9542 47.3779C39.9018 47.3779 41.4902 46.0304 41.4902 44.3779C41.4902 43.8108 41.3106 43.2743 40.9512 42.7926C41.3034 42.317 41.4902 41.7621 41.4902 41.2073C41.4902 39.5487 39.9091 38.2012 37.9542 38.2012C36.0065 38.2012 34.4181 39.5548 34.4181 41.2073C34.4181 41.756 34.605 42.323 34.95 42.7926ZM36.0353 44.3779C36.0353 44.1706 36.0784 43.9694 36.1647 43.7926C36.7037 44.0609 37.329 44.2072 37.9542 44.2072C38.5651 44.2072 39.2191 44.0608 39.7437 43.7926C39.8299 43.9755 39.8731 44.1706 39.8731 44.3779C39.8731 45.2803 39.0178 46.006 37.9542 46.006C36.8977 46.006 36.0353 45.2803 36.0353 44.3779ZM37.9542 39.5791C39.0107 39.5791 39.8731 40.3047 39.8731 41.2072C39.8731 41.8596 39.4275 42.445 38.716 42.701C37.4439 43.1888 36.0353 42.3412 36.0353 41.2072C36.0353 40.3047 36.8904 39.5791 37.9542 39.5791Z" fill="#106909"/>
</svg>
