<svg width="60" height="47" viewBox="0 0 60 47" fill="none" xmlns="http://www.w3.org/2000/svg">
<g clip-path="url(#clip0)">
<path d="M55.4593 12.6245L19.2028 0.354172C15.6672 -0.824338 11.8544 1.04741 10.6759 4.58294L8.24957 11.5847H6.72444C2.98094 11.5847 0 14.6349 0 18.3091V40.0076C0 43.7511 3.05026 46.732 6.72444 46.732H44.9913C46.0312 46.732 46.9324 46.524 47.8336 46.1081C49.9827 45.6228 51.9237 44.0284 52.6863 41.7407L59.6187 21.2207C60.8666 17.6852 58.9255 13.8724 55.4593 12.6245ZM49.844 40.0076C49.844 42.6419 47.695 44.7909 45.0607 44.7909H6.79376C4.15945 44.7909 2.0104 42.6419 2.0104 40.0076V18.3091C2.0104 15.6748 4.15945 13.5258 6.79376 13.5258H45.0607C47.695 13.5258 49.844 15.6748 49.844 18.3091V40.0076ZM51.7851 38.4131V26.628L55.39 27.8758L51.7851 38.4131ZM51.6465 17.0613C51.0225 13.9417 48.3189 11.5847 45.0607 11.5847H35.5633L13.1023 3.95903C14.0035 2.71119 15.4593 1.94863 17.0537 1.94863C17.539 1.94863 18.0936 2.01795 18.5789 2.22592L54.8354 14.4963C56.9151 15.1895 58.1629 17.1999 58.0936 19.2797L51.6465 17.0613Z" fill="#106909"/>
<path d="M6.79378 28.9149H45.0607C45.6153 28.9149 46.0312 28.499 46.0312 27.9444C46.0312 27.3898 45.6153 26.9739 45.0607 26.9739H6.79378C6.23919 26.9739 5.82324 27.3898 5.82324 27.9444C5.82324 28.499 6.23919 28.9149 6.79378 28.9149Z" fill="#106909"/>
<path d="M14.4194 31.8267H6.79378C6.23919 31.8267 5.82324 32.2426 5.82324 32.7972C5.82324 33.3518 6.23919 33.7677 6.79378 33.7677H14.4194C14.974 33.7677 15.39 33.3518 15.39 32.7972C15.39 32.2426 14.9047 31.8267 14.4194 31.8267Z" fill="#106909"/>
<path d="M26.8979 31.8267H19.2723C18.7177 31.8267 18.3018 32.2426 18.3018 32.7972C18.3018 33.3518 18.7177 33.7677 19.2723 33.7677H26.8979C27.4525 33.7677 27.8685 33.3518 27.8685 32.7972C27.8685 32.2426 27.4525 31.8267 26.8979 31.8267Z" fill="#106909"/>
<path d="M41.525 31.7573C40.4852 31.7573 39.4453 32.1039 38.6828 32.6585C37.8509 32.1039 36.8803 31.7573 35.8405 31.7573C33.1368 31.7573 30.9185 33.9757 30.9185 36.6793C30.9185 39.383 33.1368 41.6013 35.8405 41.6013C36.8803 41.6013 37.9202 41.2547 38.6828 40.7001C39.5146 41.2547 40.4852 41.6013 41.525 41.6013C44.2287 41.6013 46.447 39.383 46.447 36.6793C46.447 33.9064 44.2287 31.7573 41.525 31.7573ZM37.3656 39.2443C36.9497 39.5216 36.3951 39.6603 35.8405 39.6603C34.1767 39.6603 32.8595 38.3431 32.8595 36.6793C32.8595 35.0156 34.1767 33.6984 35.8405 33.6984C36.3951 33.6984 36.9497 33.837 37.3656 34.1143C36.8803 34.8769 36.603 35.7781 36.603 36.6793C36.603 37.5805 36.8803 38.4818 37.3656 39.2443Z" fill="#106909"/>
</g>
<defs>
<clipPath id="clip0">
<rect width="60" height="46.7313" fill="white"/>
</clipPath>
</defs>
</svg>
