<svg width="60" height="48" viewBox="0 0 60 48" fill="none" xmlns="http://www.w3.org/2000/svg">
<path d="M59 0H40C39.45 0 39 0.45 39 1V4H36C35.45 4 35 4.45 35 5V16.38L27.76 20H1C0.45 20 0 20.45 0 21V47C0 47.55 0.45 48 1 48H21C21.55 48 22 47.55 22 47V44.18L32.83 45.99C32.89 46 32.94 46 33 46H48C49.42 46 50.74 45.23 51.44 44H55C55.55 44 56 43.55 56 43V40H59C59.55 40 60 39.55 60 39V1C60 0.45 59.55 0 59 0ZM37 6H54V20H52V11C52 10.45 51.55 10 51 10C50.45 10 50 9.55 50 9C50 8.45 49.55 8 49 8H42C41.45 8 41 8.45 41 9C41 9.55 40.55 10 40 10C39.45 10 39 10.45 39 11V20H37V6ZM50 20H41V11.83C41.85 11.53 42.52 10.85 42.83 10H48.17C48.47 10.85 49.15 11.52 50 11.83V20ZM20 46H2V22H20V46ZM46 40H48C49.1 40 50 40.9 50 42C50 43.1 49.1 44 48 44H33.08L22 42.15V22H28C28.16 22 28.31 21.96 28.45 21.9L35 18.62V21C35 21.55 35.45 22 36 22H54C55.1 22 56 22.9 56 24C56 25.1 55.1 26 54 26H50C49.45 26 49 26.45 49 27C49 27.55 49.45 28 50 28H52C53.1 28 54 28.9 54 30C54 31.1 53.1 32 52 32H48C47.45 32 47 32.45 47 33C47 33.55 47.45 34 48 34H50C51.1 34 52 34.9 52 36C52 37.1 51.1 38 50 38H46C45.45 38 45 38.45 45 39C45 39.55 45.45 40 46 40ZM54 42H52C52 41.21 51.76 40.43 51.32 39.78C53.4 39.05 54.5 36.77 53.77 34.68C53.66 34.36 53.51 34.06 53.32 33.78C53.56 33.69 53.78 33.59 54 33.46V42ZM58 24V38H56V27.45C57.91 26.36 58.57 23.93 57.48 22.03C57.13 21.41 56.62 20.9 56 20.55V5C56 4.45 55.55 4 55 4H41V2H58V24Z" fill="#106909"/>
<path d="M14 36C11.79 36 10 37.79 10 40C10 42.21 11.79 44 14 44C16.21 44 18 42.21 18 40C18 37.79 16.21 36 14 36ZM14 42C12.9 42 12 41.1 12 40C12 38.9 12.9 38 14 38C15.1 38 16 38.9 16 40C16 41.1 15.1 42 14 42Z" fill="#106909"/>
</svg>
