<svg width="60" height="60" viewBox="0 0 60 60" fill="none" xmlns="http://www.w3.org/2000/svg">
<path d="M35.23 26.0301L18.23 22.0301C18.08 22.0001 17.92 22.0001 17.77 22.0301L0.77 26.0301C0.32 26.1301 0 26.5401 0 27.0001V33.0001C0 33.5501 0.45 34.0001 1 34.0001H3V50.0001C2.45 50.0001 2 50.4501 2 51.0001V54.0001H1C0.45 54.0001 0 54.4501 0 55.0001V59.0001C0 59.5501 0.45 60.0001 1 60.0001H35C35.55 60.0001 36 59.5501 36 59.0001V55.0001C36 54.4501 35.55 54.0001 35 54.0001H34V51.0001C34 50.4501 33.55 50.0001 33 50.0001V34.0001H35C35.55 34.0001 36 33.5501 36 33.0001V27.0001C36 26.5401 35.68 26.1301 35.23 26.0301ZM5 34.0001H7V50.0001H5V34.0001ZM27 34.0001V50.0001H9V34.0001H27ZM34 58.0001H2V56.0001H34V58.0001ZM4 54.0001V52.0001H32V54.0001H4ZM31 50.0001H29V34.0001H31V50.0001ZM34 32.0001H2V27.7901L18 24.0301L34 27.7901V32.0001Z" fill="#106909"/>
<path d="M15 28C15 29.66 16.34 31 18 31C19.66 31 21 29.66 21 28C21 26.34 19.66 25 18 25C16.34 25 15 26.34 15 28ZM19 28C19 28.55 18.55 29 18 29C17.45 29 17 28.55 17 28C17 27.45 17.45 27 18 27C18.55 27 19 27.45 19 28Z" fill="#106909"/>
<path d="M17 43H19C19.55 43 20 43.45 20 44C20 44.55 19.55 45 19 45H17C16.45 45 16 44.55 16 44H14C14 45.66 15.34 47 17 47V48H19V47C20.66 47 22 45.66 22 44C22 42.34 20.66 41 19 41H17C16.45 41 16 40.55 16 40C16 39.45 16.45 39 17 39H19C19.55 39 20 39.45 20 40H22C22 38.34 20.66 37 19 37V36H17V37C15.34 37 14 38.34 14 40C14 41.66 15.34 43 17 43Z" fill="#106909"/>
<path d="M44 4C41.79 4 40 5.79 40 8C40 10.21 41.79 12 44 12C46.21 12 48 10.21 48 8C48 5.79 46.21 4 44 4ZM44 10C42.9 10 42 9.1 42 8C42 6.9 42.9 6 44 6C45.1 6 46 6.9 46 8C46 9.1 45.1 10 44 10Z" fill="#106909"/>
<path d="M58 0H30C28.9 0 28 0.9 28 2V14C28 15.1 28.9 16 30 16H58C59.1 16 60 15.1 60 14V2C60 0.9 59.1 0 58 0ZM53.09 14H34.91C34.48 11.49 32.51 9.52 30 9.09V6.91C32.51 6.48 34.48 4.51 34.91 2H53.09C53.52 4.51 55.49 6.48 58 6.91V9.09C55.49 9.52 53.52 11.49 53.09 14ZM58 4.87C56.59 4.51 55.49 3.41 55.13 2H58V4.87ZM30 2H32.87C32.51 3.41 31.41 4.51 30 4.87V2ZM30 14V11.13C31.41 11.5 32.51 12.6 32.87 14H30ZM58 14H55.13C55.5 12.59 56.6 11.49 58 11.13V14Z" fill="#106909"/>
<path d="M40 46H38V48H40V46Z" fill="#106909"/>
<path d="M44 46H42V48H44V46Z" fill="#106909"/>
<path d="M48 46H46V48H48V46Z" fill="#106909"/>
<path d="M48 42H46V44H48V42Z" fill="#106909"/>
<path d="M48 38H46V40H48V38Z" fill="#106909"/>
<path d="M48 34H46V36H48V34Z" fill="#106909"/>
<path d="M48 30H46V32H48V30Z" fill="#106909"/>
<path d="M48 26H46V28H48V26Z" fill="#106909"/>
<path d="M48 22H46V24H48V22Z" fill="#106909"/>
<path d="M48 18H46V20H48V18Z" fill="#106909"/>
<path d="M26 6H24V8H26V6Z" fill="#106909"/>
<path d="M22 6H20V8H22V6Z" fill="#106909"/>
<path d="M18 6H16V8H18V6Z" fill="#106909"/>
<path d="M18 10H16V12H18V10Z" fill="#106909"/>
<path d="M18 14H16V16H18V14Z" fill="#106909"/>
<path d="M18 18H16V20H18V18Z" fill="#106909"/>
</svg>
