<svg width="21" height="17" viewBox="0 0 21 17" fill="none" xmlns="http://www.w3.org/2000/svg">
<path d="M3.87347 2.37402H2.37402V3.87347H3.87347V2.37402Z" fill="white"/>
<path d="M6.21624 2.37402H4.7168V3.87347H6.21624V2.37402Z" fill="white"/>
<path d="M8.55901 2.37402H7.05957V3.87347H8.55901V2.37402Z" fill="white"/>
<path d="M13.8179 13.1904L15.4735 11.7977L17.6159 11.4983L13.8335 8.11157L13.8179 13.1904Z" fill="white"/>
<path d="M8.09093 8.52539H3.12402V10.0873H8.09093V8.52539Z" fill="white"/>
<path d="M10.4338 11.2146H3.12402V12.7765H10.4338V11.2146Z" fill="white"/>
<path d="M21 0H0V16.5746H21V0ZM19.4381 1.56192V4.68576H1.56192V1.56192H19.4381ZM1.56192 15.0126V6.24768H19.4381V15.0126H1.56192Z" fill="white"/>
</svg>
