<svg width="21" height="24" viewBox="0 0 21 24" fill="none" xmlns="http://www.w3.org/2000/svg">
<path d="M10.5 0C8.03798 0 6.03791 2.00007 6.03791 4.46209V4.72457H4.20058C3.33703 4.72457 2.6546 5.43326 2.62573 6.27581L0.000966499 21.4994C-0.0305306 22.384 0.712276 23.0979 1.57582 23.0979H19.4242C20.2877 23.0979 21.0305 22.384 20.999 21.4994L18.3743 6.27581C18.3454 5.43589 17.663 4.72457 16.7994 4.72457H14.9621V4.46209C14.9621 2.00007 12.9646 0 10.5 0ZM10.5 1.0499C12.4003 1.0499 13.9122 2.56177 13.9122 4.46209V4.72457H7.08781V4.46209C7.08781 2.56439 8.6023 1.0499 10.5 1.0499ZM4.20058 5.77447H6.03791V7.1761C5.42897 7.39395 4.98801 7.98189 4.98801 8.66171C4.98801 9.52525 5.69932 10.2366 6.56286 10.2366C7.42641 10.2366 8.13772 9.52525 8.13772 8.66171C8.13772 7.98189 7.69676 7.39658 7.08781 7.1761V5.77447H13.9122V7.1761C13.3032 7.39395 12.8623 7.98189 12.8623 8.66171C12.8623 9.52525 13.5736 10.2366 14.4371 10.2366C15.3007 10.2366 16.012 9.52525 16.012 8.66171C16.012 7.98189 15.571 7.39658 14.9621 7.1761V5.77447H16.7994C17.0986 5.77447 17.3139 5.99495 17.3244 6.31517L19.9491 21.5388C19.9596 21.817 19.7234 22.048 19.4242 22.048H1.57582C1.2766 22.048 1.04037 21.817 1.05087 21.5388L3.67563 6.31517C3.68875 5.99495 3.90136 5.77447 4.20058 5.77447ZM6.56286 8.13675C6.85946 8.13675 7.08781 8.36511 7.08781 8.66171C7.08781 8.9583 6.85946 9.18666 6.56286 9.18666C6.26627 9.18666 6.03791 8.9583 6.03791 8.66171C6.03791 8.36511 6.26889 8.13675 6.56286 8.13675ZM14.4371 8.13675C14.7337 8.13675 14.9621 8.36511 14.9621 8.66171C14.9621 8.9583 14.7337 9.18666 14.4371 9.18666C14.1405 9.18666 13.9122 8.9583 13.9122 8.66171C13.9122 8.36511 14.1432 8.13675 14.4371 8.13675Z" fill="white"/>
</svg>
